ffmpeg started on 2025-06-19 at 12:02:50
Report written to "D:\Convert\FFMetrics\reports\ssim_report-6.txt"
Log level: 32
Command line:
ffmpeg -hide_banner -nostdin -i "G:\\\xc0\xed\xe8\xec\xe5\\[\xd2\xee\xef-4]\\Fate\\\xc0\xef\xee\xea\xf0\xe8\xf4\\Fate_Apocrypha_[17]_[AniLibria_TV]_[HDTVRip_720p]_HEVC.mkv" -i "G:\\\xc0\xed\xe8\xec\xe5\\[\xd2\xee\xef-4]\\Fate\\\xc0\xef\xee\xea\xf0\xe8\xf4\\Fate_Apocrypha_[17]_[AniLibria_TV]_[HDTVRip_720p].mkv" -lavfi "[0:v]settb=AVTB,setpts=PTS-STARTPTS,format=pix_fmts=yuv420p10,fps=24000/1001,scale=1280:720:flags=bicubic[main];[1:v]settb=AVTB,setpts=PTS-STARTPTS,format=pix_fmts=yuv420p,fps=24000/1001,scale=1280:720:flags=bicubic[ref];[main][ref]ssim=eof_action=endall:stats_file='D\\:/Convert/FFMetrics/logs/ssim_logfile-6.txt'" -f null -
Input #0, matroska,webm, from 'G:\Аниме\[Топ-4]\Fate\Апокриф\Fate_Apocrypha_[17]_[AniLibria_TV]_[HDTVRip_720p]_HEVC.mkv':
  Metadata:
    ENCODER         : Lavf61.7.100
  Duration: 00:24:00.17, start: -0.021000, bitrate: 618 kb/s
  Stream #0:0(jpn): Video: hevc (Main 10), yuv420p10le(tv, bt709, progressive), 1280x720 [SAR 1:1 DAR 16:9], 23.81 fps, 23.81 tbr, 1k tbn (default)
      Metadata:
        ENCODER         : Lavc61.19.100 libx265
        BPS             : 420803
        DURATION        : 00:24:00.054000000
        NUMBER_OF_FRAMES: 34526
        NUMBER_OF_BYTES : 75747484
        _STATISTICS_WRITING_APP: mkvpropedit v66.0.0 ('Josie') 64-bit
        _STATISTICS_WRITING_DATE_UTC: 2025-06-16 17:21:13
        _STATISTICS_TAGS: BPS DURATION NUMBER_OF_FRAMES NUMBER_OF_BYTES
  Stream #0:1(rus): Audio: aac (LC), 48000 Hz, stereo, fltp (default)
      Metadata:
        title           : Ados Amikiri Anzen Hekomi Silv
        ENCODER         : Lavc61.19.100 aac
        BPS             : 193610
        DURATION        : 00:24:00.149000000
        NUMBER_OF_FRAMES: 67508
        NUMBER_OF_BYTES : 34853481
        _STATISTICS_WRITING_APP: mkvpropedit v66.0.0 ('Josie') 64-bit
        _STATISTICS_WRITING_DATE_UTC: 2025-06-16 17:21:13
        _STATISTICS_TAGS: BPS DURATION NUMBER_OF_FRAMES NUMBER_OF_BYTES
  Stream #0:2(rus): Subtitle: ass (ssa) (default) (forced)
      Metadata:
        title           : Надписи
        BPS             : 434
        DURATION        : 00:00:03.000000000
        NUMBER_OF_FRAMES: 2
        NUMBER_OF_BYTES : 163
        _STATISTICS_WRITING_APP: mkvpropedit v66.0.0 ('Josie') 64-bit
        _STATISTICS_WRITING_DATE_UTC: 2025-06-16 17:21:13
        _STATISTICS_TAGS: BPS DURATION NUMBER_OF_FRAMES NUMBER_OF_BYTES
  Stream #0:3(rus): Subtitle: ass (ssa)
      Metadata:
        title           : Полные
        BPS             : 125
        DURATION        : 00:22:07.410000000
        NUMBER_OF_FRAMES: 278
        NUMBER_OF_BYTES : 20852
        _STATISTICS_WRITING_APP: mkvpropedit v66.0.0 ('Josie') 64-bit
        _STATISTICS_WRITING_DATE_UTC: 2025-06-16 17:21:13
        _STATISTICS_TAGS: BPS DURATION NUMBER_OF_FRAMES NUMBER_OF_BYTES
Input #1, matroska,webm, from 'G:\Аниме\[Топ-4]\Fate\Апокриф\Fate_Apocrypha_[17]_[AniLibria_TV]_[HDTVRip_720p].mkv':
  Metadata:
    encoder         : libebml v1.3.0 + libmatroska v1.4.1
    creation_time   : 2017-11-01T19:11:36.000000Z
  Duration: 00:24:00.15, start: 0.000000, bitrate: 1890 kb/s
  Stream #1:0: Video: h264 (Main), yuv420p(tv, bt709, progressive), 1280x720, SAR 1:1 DAR 16:9, 23.81 fps, 23.81 tbr, 1k tbn (default)
      Metadata:
        BPS             : 1494385
        BPS-eng         : 1494385
        DURATION        : 00:24:00.071000000
        DURATION-eng    : 00:24:00.071000000
        NUMBER_OF_FRAMES: 34526
        NUMBER_OF_FRAMES-eng: 34526
        NUMBER_OF_BYTES : 269002611
        NUMBER_OF_BYTES-eng: 269002611
        _STATISTICS_WRITING_APP: mkvmerge v7.3.0 ('Nouages') 64bit built on Oct 22 2014 18:53:34
        _STATISTICS_WRITING_APP-eng: mkvmerge v7.3.0 ('Nouages') 64bit built on Oct 22 2014 18:53:34
        _STATISTICS_WRITING_DATE_UTC: 2017-11-01 19:11:36
        _STATISTICS_WRITING_DATE_UTC-eng: 2017-11-01 19:11:36
        _STATISTICS_TAGS: BPS DURATION NUMBER_OF_FRAMES NUMBER_OF_BYTES
        _STATISTICS_TAGS-eng: BPS DURATION NUMBER_OF_FRAMES NUMBER_OF_BYTES
  Stream #1:1(rus): Audio: aac (LC), 48000 Hz, stereo, fltp (default)
      Metadata:
        title           : Ados Amikiri Anzen Hekomi Silv
        BPS             : 192091
        BPS-eng         : 192091
        DURATION        : 00:24:00.149000000
        DURATION-eng    : 00:24:00.149000000
        NUMBER_OF_FRAMES: 67507
        NUMBER_OF_FRAMES-eng: 67507
        NUMBER_OF_BYTES : 34580021
        NUMBER_OF_BYTES-eng: 34580021
        _STATISTICS_WRITING_APP: mkvmerge v7.3.0 ('Nouages') 64bit built on Oct 22 2014 18:53:34
        _STATISTICS_WRITING_APP-eng: mkvmerge v7.3.0 ('Nouages') 64bit built on Oct 22 2014 18:53:34
        _STATISTICS_WRITING_DATE_UTC: 2017-11-01 19:11:36
        _STATISTICS_WRITING_DATE_UTC-eng: 2017-11-01 19:11:36
        _STATISTICS_TAGS: BPS DURATION NUMBER_OF_FRAMES NUMBER_OF_BYTES
        _STATISTICS_TAGS-eng: BPS DURATION NUMBER_OF_FRAMES NUMBER_OF_BYTES
  Stream #1:2(jpn): Audio: aac (LC), 48000 Hz, stereo, fltp
      Metadata:
        title           : Оригинал
        BPS             : 199300
        BPS-eng         : 199300
        DURATION        : 00:24:00.106000000
        DURATION-eng    : 00:24:00.106000000
        NUMBER_OF_FRAMES: 67505
        NUMBER_OF_FRAMES-eng: 67505
        NUMBER_OF_BYTES : 35876806
        NUMBER_OF_BYTES-eng: 35876806
        _STATISTICS_WRITING_APP: mkvmerge v7.3.0 ('Nouages') 64bit built on Oct 22 2014 18:53:34
        _STATISTICS_WRITING_APP-eng: mkvmerge v7.3.0 ('Nouages') 64bit built on Oct 22 2014 18:53:34
        _STATISTICS_WRITING_DATE_UTC: 2017-11-01 19:11:36
        _STATISTICS_WRITING_DATE_UTC-eng: 2017-11-01 19:11:36
        _STATISTICS_TAGS: BPS DURATION NUMBER_OF_FRAMES NUMBER_OF_BYTES
        _STATISTICS_TAGS-eng: BPS DURATION NUMBER_OF_FRAMES NUMBER_OF_BYTES
  Stream #1:3(rus): Subtitle: ass (ssa) (default) (forced)
      Metadata:
        title           : Надписи
        BPS             : 434
        BPS-eng         : 434
        DURATION        : 00:00:03.000000000
        DURATION-eng    : 00:00:03.000000000
        NUMBER_OF_FRAMES: 2
        NUMBER_OF_FRAMES-eng: 2
        NUMBER_OF_BYTES : 163
        NUMBER_OF_BYTES-eng: 163
        _STATISTICS_WRITING_APP: mkvmerge v7.3.0 ('Nouages') 64bit built on Oct 22 2014 18:53:34
        _STATISTICS_WRITING_APP-eng: mkvmerge v7.3.0 ('Nouages') 64bit built on Oct 22 2014 18:53:34
        _STATISTICS_WRITING_DATE_UTC: 2017-11-01 19:11:36
        _STATISTICS_WRITING_DATE_UTC-eng: 2017-11-01 19:11:36
        _STATISTICS_TAGS: BPS DURATION NUMBER_OF_FRAMES NUMBER_OF_BYTES
        _STATISTICS_TAGS-eng: BPS DURATION NUMBER_OF_FRAMES NUMBER_OF_BYTES
  Stream #1:4(rus): Subtitle: ass (ssa)
      Metadata:
        title           : Полные
        BPS             : 125
        BPS-eng         : 125
        DURATION        : 00:22:07.410000000
        DURATION-eng    : 00:22:07.410000000
        NUMBER_OF_FRAMES: 278
        NUMBER_OF_FRAMES-eng: 278
        NUMBER_OF_BYTES : 20852
        NUMBER_OF_BYTES-eng: 20852
        _STATISTICS_WRITING_APP: mkvmerge v7.3.0 ('Nouages') 64bit built on Oct 22 2014 18:53:34
        _STATISTICS_WRITING_APP-eng: mkvmerge v7.3.0 ('Nouages') 64bit built on Oct 22 2014 18:53:34
        _STATISTICS_WRITING_DATE_UTC: 2017-11-01 19:11:36
        _STATISTICS_WRITING_DATE_UTC-eng: 2017-11-01 19:11:36
        _STATISTICS_TAGS: BPS DURATION NUMBER_OF_FRAMES NUMBER_OF_BYTES
        _STATISTICS_TAGS-eng: BPS DURATION NUMBER_OF_FRAMES NUMBER_OF_BYTES
  Stream #1:5: Attachment: ttf
      Metadata:
        filename        : ALBR.ttf
        mimetype        : application/x-truetype-font
  Stream #1:6: Attachment: ttf
      Metadata:
        filename        : 9511(1).ttf
        mimetype        : application/x-truetype-font
Stream mapping:
  Stream #0:0 (hevc) -> settb:default
  Stream #1:0 (h264) -> settb:default
  ssim:default -> Stream #0:0 (wrapped_avframe)
  Stream #0:1 -> #0:1 (aac (native) -> pcm_s16le (native))
Output #0, null, to 'pipe:':
  Metadata:
    encoder         : Lavf61.7.100
  Stream #0:0: Video: wrapped_avframe, yuv420p10le(tv, bt709, progressive), 1280x720 [SAR 1:1 DAR 16:9], q=2-31, 200 kb/s, 23.98 fps, 23.98 tbn
      Metadata:
        encoder         : Lavc61.19.100 wrapped_avframe
  Stream #0:1(rus): Audio: pcm_s16le, 48000 Hz, stereo, s16, 1536 kb/s (default)
      Metadata:
        title           : Ados Amikiri Anzen Hekomi Silv
        _STATISTICS_TAGS: BPS DURATION NUMBER_OF_FRAMES NUMBER_OF_BYTES
        BPS             : 193610
        DURATION        : 00:24:00.149000000
        NUMBER_OF_FRAMES: 67508
        NUMBER_OF_BYTES : 34853481
        _STATISTICS_WRITING_APP: mkvpropedit v66.0.0 ('Josie') 64-bit
        _STATISTICS_WRITING_DATE_UTC: 2025-06-16 17:21:13
        encoder         : Lavc61.19.100 pcm_s16le
frame=  439 fps=0.0 q=-0.0 size=N/A time=00:00:18.30 bitrate=N/A speed=35.6x    frame=  938 fps=906 q=-0.0 size=N/A time=00:00:39.12 bitrate=N/A speed=37.8x    frame= 1299 fps=841 q=-0.0 size=N/A time=00:00:54.17 bitrate=N/A speed=35.1x    frame= 1732 fps=837 q=-0.0 size=N/A time=00:01:12.23 bitrate=N/A speed=34.9x    frame= 2146 fps=827 q=-0.0 size=N/A time=00:01:29.50 bitrate=N/A speed=34.5x    frame= 2566 fps=826 q=-0.0 size=N/A time=00:01:47.02 bitrate=N/A speed=34.4x    frame= 2938 fps=812 q=-0.0 size=N/A time=00:02:02.53 bitrate=N/A speed=33.9x    frame= 3434 fps=829 q=-0.0 size=N/A time=00:02:23.22 bitrate=N/A speed=34.6x    frame= 3813 fps=819 q=-0.0 size=N/A time=00:02:39.03 bitrate=N/A speed=34.2x    frame= 4192 fps=812 q=-0.0 size=N/A time=00:02:54.84 bitrate=N/A speed=33.9x    frame= 4790 fps=842 q=-0.0 size=N/A time=00:03:19.78 bitrate=N/A speed=35.1x    frame= 5269 fps=850 q=-0.0 size=N/A time=00:03:39.76 bitrate=N/A speed=35.4x    frame= 5813 fps=866 q=-0.0 size=N/A time=00:04:02.45 bitrate=N/A speed=36.1x    frame= 6287 fps=869 q=-0.0 size=N/A time=00:04:22.22 bitrate=N/A speed=36.2x    frame= 6843 fps=883 q=-0.0 size=N/A time=00:04:45.41 bitrate=N/A speed=36.8x    frame= 7445 fps=901 q=-0.0 size=N/A time=00:05:10.51 bitrate=N/A speed=37.6x    frame= 7948 fps=905 q=-0.0 size=N/A time=00:05:31.49 bitrate=N/A speed=37.7x    frame= 8467 fps=911 q=-0.0 size=N/A time=00:05:53.14 bitrate=N/A speed=  38x    frame= 9033 fps=921 q=-0.0 size=N/A time=00:06:16.75 bitrate=N/A speed=38.4x    frame= 9465 fps=916 q=-0.0 size=N/A time=00:06:34.76 bitrate=N/A speed=38.2x    frame= 9917 fps=915 q=-0.0 size=N/A time=00:06:53.62 bitrate=N/A speed=38.1x    frame=10417 fps=917 q=-0.0 size=N/A time=00:07:14.47 bitrate=N/A speed=38.2x    frame=10981 fps=925 q=-0.0 size=N/A time=00:07:37.99 bitrate=N/A speed=38.6x    frame=11580 fps=935 q=-0.0 size=N/A time=00:08:02.98 bitrate=N/A speed=  39x    frame=12238 fps=948 q=-0.0 size=N/A time=00:08:30.42 bitrate=N/A speed=39.5x    frame=12836 fps=957 q=-0.0 size=N/A time=00:08:55.36 bitrate=N/A speed=39.9x    frame=13425 fps=963 q=-0.0 size=N/A time=00:09:19.93 bitrate=N/A speed=40.2x    frame=13969 fps=966 q=-0.0 size=N/A time=00:09:42.62 bitrate=N/A speed=40.3x    frame=14535 fps=971 q=-0.0 size=N/A time=00:10:06.23 bitrate=N/A speed=40.5x    frame=15130 fps=977 q=-0.0 size=N/A time=00:10:31.04 bitrate=N/A speed=40.7x    frame=15754 fps=984 q=-0.0 size=N/A time=00:10:57.07 bitrate=N/A speed=  41x    frame=16318 fps=987 q=-0.0 size=N/A time=00:11:20.59 bitrate=N/A speed=41.2x    frame=16845 fps=988 q=-0.0 size=N/A time=00:11:42.57 bitrate=N/A speed=41.2x    frame=17415 fps=992 q=-0.0 size=N/A time=00:12:06.35 bitrate=N/A speed=41.4x    frame=17971 fps=994 q=-0.0 size=N/A time=00:12:29.54 bitrate=N/A speed=41.5x    frame=18550 fps=998 q=-0.0 size=N/A time=00:12:53.68 bitrate=N/A speed=41.6x    frame=19095 fps=999 q=-0.0 size=N/A time=00:13:16.42 bitrate=N/A speed=41.7x    frame=19704 fps=1004 q=-0.0 size=N/A time=00:13:41.82 bitrate=N/A speed=41.9x    frame=20247 fps=1005 q=-0.0 size=N/A time=00:14:04.46 bitrate=N/A speed=41.9x    frame=20864 fps=1010 q=-0.0 size=N/A time=00:14:30.20 bitrate=N/A speed=42.1x    frame=21493 fps=1015 q=-0.0 size=N/A time=00:14:56.43 bitrate=N/A speed=42.4x    frame=22087 fps=1018 q=-0.0 size=N/A time=00:15:21.21 bitrate=N/A speed=42.5x    frame=22585 fps=1017 q=-0.0 size=N/A time=00:15:41.98 bitrate=N/A speed=42.4x    frame=22958 fps=1011 q=-0.0 size=N/A time=00:15:57.53 bitrate=N/A speed=42.2x    frame=23409 fps=1007 q=-0.0 size=N/A time=00:16:16.35 bitrate=N/A speed=  42x    frame=23721 fps=999 q=-0.0 size=N/A time=00:16:29.36 bitrate=N/A speed=41.7x    frame=24220 fps=998 q=-0.0 size=N/A time=00:16:50.17 bitrate=N/A speed=41.6x    frame=24794 fps=1000 q=-0.0 size=N/A time=00:17:14.11 bitrate=N/A speed=41.7x    frame=25189 fps=996 q=-0.0 size=N/A time=00:17:30.59 bitrate=N/A speed=41.5x    frame=25682 fps=995 q=-0.0 size=N/A time=00:17:51.15 bitrate=N/A speed=41.5x    frame=26150 fps=993 q=-0.0 size=N/A time=00:18:10.67 bitrate=N/A speed=41.4x    frame=26687 fps=994 q=-0.0 size=N/A time=00:18:33.07 bitrate=N/A speed=41.4x    frame=27120 fps=991 q=-0.0 size=N/A time=00:18:51.13 bitrate=N/A speed=41.3x    frame=27727 fps=994 q=-0.0 size=N/A time=00:19:16.44 bitrate=N/A speed=41.5x    frame=28303 fps=996 q=-0.0 size=N/A time=00:19:40.47 bitrate=N/A speed=41.6x    frame=28867 fps=998 q=-0.0 size=N/A time=00:20:03.99 bitrate=N/A speed=41.6x    frame=29404 fps=999 q=-0.0 size=N/A time=00:20:26.39 bitrate=N/A speed=41.7x    frame=29976 fps=1001 q=-0.0 size=N/A time=00:20:50.24 bitrate=N/A speed=41.7x    frame=30558 fps=1003 q=-0.0 size=N/A time=00:21:14.52 bitrate=N/A speed=41.8x    frame=31110 fps=1004 q=-0.0 size=N/A time=00:21:37.54 bitrate=N/A speed=41.9x    frame=31554 fps=1002 q=-0.0 size=N/A time=00:21:56.06 bitrate=N/A speed=41.8x    frame=32145 fps=1004 q=-0.0 size=N/A time=00:22:20.71 bitrate=N/A speed=41.9x    frame=32706 fps=1005 q=-0.0 size=N/A time=00:22:44.11 bitrate=N/A speed=41.9x    frame=33300 fps=1007 q=-0.0 size=N/A time=00:23:08.88 bitrate=N/A speed=  42x    frame=33686 fps=1004 q=-0.0 size=N/A time=00:23:24.98 bitrate=N/A speed=41.9x    frame=34165 fps=1003 q=-0.0 size=N/A time=00:23:45.00 bitrate=N/A speed=41.8x    [Parsed_ssim_10 @ 000001731ead24c0] SSIM Y:0.989653 (19.851816) U:0.990803 (20.363335) V:0.991637 (20.776287) All:0.990175 (20.076749)
[out#0/null @ 00000173132c95c0] video:14836KiB audio:270032KiB subtitle:0KiB other streams:0KiB global headers:0KiB muxing overhead: unknown
frame=34527 fps=1005 q=-0.0 Lsize=N/A time=00:24:00.06 bitrate=N/A speed=41.9x    
